<mxfile host="app.diagrams.net" modified="2021-09-06T06:04:18.841Z" agent="5.0 (Macintosh; Intel Mac OS X 10_15_7) AppleWebKit/537.36 (KHTML, like Gecko) Chrome/92.0.4515.159 Safari/537.36" etag="9HZj86uuJTzPA9jzelnO" version="15.0.3" type="github">
  <diagram id="wdjLH5UwVM_nEjBRr2EJ" name="Page-1">
    <mxGraphModel dx="2066" dy="769" grid="1" gridSize="10" guides="1" tooltips="1" connect="1" arrows="1" fold="1" page="1" pageScale="1" pageWidth="850" pageHeight="1100" math="0" shadow="0">
      <root>
        <mxCell id="0" />
        <mxCell id="1" parent="0" />
        <mxCell id="DjDlUBk-94I_P1uRHrz8-1" style="edgeStyle=orthogonalEdgeStyle;orthogonalLoop=1;jettySize=auto;html=1;exitX=0.5;exitY=1;exitDx=0;exitDy=0;entryX=0;entryY=0.5;entryDx=0;entryDy=0;" parent="1" source="DjDlUBk-94I_P1uRHrz8-8" target="DjDlUBk-94I_P1uRHrz8-19" edge="1">
          <mxGeometry relative="1" as="geometry" />
        </mxCell>
        <mxCell id="DjDlUBk-94I_P1uRHrz8-2" value="std::weak_ptr" style="edgeLabel;html=1;align=center;verticalAlign=middle;resizable=0;points=[];" parent="DjDlUBk-94I_P1uRHrz8-1" vertex="1" connectable="0">
          <mxGeometry x="0.1744" y="39" relative="1" as="geometry">
            <mxPoint x="24" y="39" as="offset" />
          </mxGeometry>
        </mxCell>
        <mxCell id="DjDlUBk-94I_P1uRHrz8-3" style="edgeStyle=orthogonalEdgeStyle;orthogonalLoop=1;jettySize=auto;html=1;exitX=0.75;exitY=1;exitDx=0;exitDy=0;entryX=0;entryY=0.5;entryDx=0;entryDy=0;" parent="1" source="DjDlUBk-94I_P1uRHrz8-8" target="DjDlUBk-94I_P1uRHrz8-15" edge="1">
          <mxGeometry relative="1" as="geometry" />
        </mxCell>
        <mxCell id="DjDlUBk-94I_P1uRHrz8-4" value="object" style="edgeLabel;html=1;align=center;verticalAlign=middle;resizable=0;points=[];" parent="DjDlUBk-94I_P1uRHrz8-3" vertex="1" connectable="0">
          <mxGeometry x="-0.0684" y="13" relative="1" as="geometry">
            <mxPoint x="12" y="13" as="offset" />
          </mxGeometry>
        </mxCell>
        <mxCell id="DjDlUBk-94I_P1uRHrz8-5" value="std::shared_ptr" style="edgeStyle=orthogonalEdgeStyle;orthogonalLoop=1;jettySize=auto;html=1;exitX=1;exitY=0.5;exitDx=0;exitDy=0;entryX=0;entryY=0.5;entryDx=0;entryDy=0;" parent="1" source="DjDlUBk-94I_P1uRHrz8-8" target="DjDlUBk-94I_P1uRHrz8-12" edge="1">
          <mxGeometry relative="1" as="geometry" />
        </mxCell>
        <mxCell id="DjDlUBk-94I_P1uRHrz8-6" style="edgeStyle=orthogonalEdgeStyle;orthogonalLoop=1;jettySize=auto;html=1;exitX=0.75;exitY=0;exitDx=0;exitDy=0;entryX=0;entryY=0.5;entryDx=0;entryDy=0;" parent="1" source="DjDlUBk-94I_P1uRHrz8-8" target="DjDlUBk-94I_P1uRHrz8-49" edge="1">
          <mxGeometry relative="1" as="geometry" />
        </mxCell>
        <mxCell id="DjDlUBk-94I_P1uRHrz8-7" value="construct" style="edgeLabel;html=1;align=center;verticalAlign=middle;resizable=0;points=[];" parent="DjDlUBk-94I_P1uRHrz8-6" vertex="1" connectable="0">
          <mxGeometry x="0.3036" y="-11" relative="1" as="geometry">
            <mxPoint x="-25" y="2" as="offset" />
          </mxGeometry>
        </mxCell>
        <mxCell id="DjDlUBk-94I_P1uRHrz8-8" value="pt::Tensor" style="html=1;" parent="1" vertex="1">
          <mxGeometry x="210" y="860" width="110" height="50" as="geometry" />
        </mxCell>
        <mxCell id="DjDlUBk-94I_P1uRHrz8-15" value="grad_" style="html=1;" parent="1" vertex="1">
          <mxGeometry x="454" y="920" width="110" height="50" as="geometry" />
        </mxCell>
        <mxCell id="DjDlUBk-94I_P1uRHrz8-20" style="edgeStyle=orthogonalEdgeStyle;orthogonalLoop=1;jettySize=auto;html=1;exitX=1;exitY=0.25;exitDx=0;exitDy=0;entryX=0;entryY=0.5;entryDx=0;entryDy=0;" parent="1" source="DjDlUBk-94I_P1uRHrz8-25" target="DjDlUBk-94I_P1uRHrz8-54" edge="1">
          <mxGeometry relative="1" as="geometry">
            <mxPoint x="454" y="555" as="targetPoint" />
          </mxGeometry>
        </mxCell>
        <mxCell id="DjDlUBk-94I_P1uRHrz8-21" value="std::shared_ptr" style="edgeLabel;html=1;align=center;verticalAlign=middle;resizable=0;points=[];" parent="DjDlUBk-94I_P1uRHrz8-20" vertex="1" connectable="0">
          <mxGeometry x="0.2742" relative="1" as="geometry">
            <mxPoint as="offset" />
          </mxGeometry>
        </mxCell>
        <mxCell id="DjDlUBk-94I_P1uRHrz8-22" value="std::weak_ptr" style="edgeStyle=orthogonalEdgeStyle;orthogonalLoop=1;jettySize=auto;html=1;exitX=1;exitY=0.75;exitDx=0;exitDy=0;entryX=0;entryY=0.5;entryDx=0;entryDy=0;" parent="1" source="DjDlUBk-94I_P1uRHrz8-25" target="DjDlUBk-94I_P1uRHrz8-26" edge="1">
          <mxGeometry relative="1" as="geometry" />
        </mxCell>
        <mxCell id="DjDlUBk-94I_P1uRHrz8-23" value="object" style="edgeStyle=orthogonalEdgeStyle;orthogonalLoop=1;jettySize=auto;html=1;exitX=1;exitY=0.5;exitDx=0;exitDy=0;entryX=0;entryY=0.5;entryDx=0;entryDy=0;" parent="1" source="DjDlUBk-94I_P1uRHrz8-25" target="DjDlUBk-94I_P1uRHrz8-28" edge="1">
          <mxGeometry relative="1" as="geometry" />
        </mxCell>
        <mxCell id="DjDlUBk-94I_P1uRHrz8-24" style="edgeStyle=orthogonalEdgeStyle;orthogonalLoop=1;jettySize=auto;html=1;exitX=0.5;exitY=1;exitDx=0;exitDy=0;" parent="1" source="DjDlUBk-94I_P1uRHrz8-25" target="DjDlUBk-94I_P1uRHrz8-38" edge="1">
          <mxGeometry relative="1" as="geometry" />
        </mxCell>
        <mxCell id="DjDlUBk-94I_P1uRHrz8-25" value="pt::Tensor" style="html=1;" parent="1" vertex="1">
          <mxGeometry x="210" y="590" width="110" height="50" as="geometry" />
        </mxCell>
        <mxCell id="DjDlUBk-94I_P1uRHrz8-26" value="grad_accumulator_" style="html=1;" parent="1" vertex="1">
          <mxGeometry x="454" y="670" width="110" height="50" as="geometry" />
        </mxCell>
        <mxCell id="DjDlUBk-94I_P1uRHrz8-28" value="grad_" style="html=1;" parent="1" vertex="1">
          <mxGeometry x="454" y="595" width="110" height="50" as="geometry" />
        </mxCell>
        <mxCell id="DjDlUBk-94I_P1uRHrz8-34" style="edgeStyle=orthogonalEdgeStyle;orthogonalLoop=1;jettySize=auto;html=1;exitX=0.75;exitY=0;exitDx=0;exitDy=0;entryX=0;entryY=0.5;entryDx=0;entryDy=0;" parent="1" source="DjDlUBk-94I_P1uRHrz8-36" target="DjDlUBk-94I_P1uRHrz8-25" edge="1">
          <mxGeometry relative="1" as="geometry" />
        </mxCell>
        <mxCell id="DjDlUBk-94I_P1uRHrz8-35" style="edgeStyle=orthogonalEdgeStyle;orthogonalLoop=1;jettySize=auto;html=1;exitX=0.75;exitY=1;exitDx=0;exitDy=0;entryX=0;entryY=0.5;entryDx=0;entryDy=0;" parent="1" source="DjDlUBk-94I_P1uRHrz8-36" target="DjDlUBk-94I_P1uRHrz8-8" edge="1">
          <mxGeometry relative="1" as="geometry" />
        </mxCell>
        <mxCell id="DjDlUBk-94I_P1uRHrz8-36" value="User Front End" style="html=1;" parent="1" vertex="1">
          <mxGeometry x="10" y="700" width="110" height="50" as="geometry" />
        </mxCell>
        <mxCell id="DjDlUBk-94I_P1uRHrz8-37" style="edgeStyle=orthogonalEdgeStyle;orthogonalLoop=1;jettySize=auto;html=1;exitX=0.5;exitY=1;exitDx=0;exitDy=0;entryX=0.5;entryY=0;entryDx=0;entryDy=0;" parent="1" source="DjDlUBk-94I_P1uRHrz8-38" target="DjDlUBk-94I_P1uRHrz8-8" edge="1">
          <mxGeometry relative="1" as="geometry" />
        </mxCell>
        <mxCell id="DjDlUBk-94I_P1uRHrz8-38" value="Kernel_Function" style="html=1;" parent="1" vertex="1">
          <mxGeometry x="210" y="720" width="110" height="50" as="geometry" />
        </mxCell>
        <mxCell id="DjDlUBk-94I_P1uRHrz8-48" value="TensorWrapper" style="swimlane;fontStyle=1;align=center;verticalAlign=top;childLayout=stackLayout;horizontal=1;startSize=26;horizontalStack=0;resizeParent=1;resizeParentMax=0;resizeLast=0;collapsible=1;marginBottom=0;" parent="1" vertex="1">
          <mxGeometry x="360" y="737" width="310" height="86" as="geometry" />
        </mxCell>
        <mxCell id="DjDlUBk-94I_P1uRHrz8-49" value="+ intermidiate_tensor_: Tensor" style="text;strokeColor=none;fillColor=none;align=left;verticalAlign=top;spacingLeft=4;spacingRight=4;overflow=hidden;rotatable=0;points=[[0,0.5],[1,0.5]];portConstraint=eastwest;" parent="DjDlUBk-94I_P1uRHrz8-48" vertex="1">
          <mxGeometry y="26" width="310" height="26" as="geometry" />
        </mxCell>
        <mxCell id="DjDlUBk-94I_P1uRHrz8-50" value="" style="line;strokeWidth=1;fillColor=none;align=left;verticalAlign=middle;spacingTop=-1;spacingLeft=3;spacingRight=3;rotatable=0;labelPosition=right;points=[];portConstraint=eastwest;" parent="DjDlUBk-94I_P1uRHrz8-48" vertex="1">
          <mxGeometry y="52" width="310" height="8" as="geometry" />
        </mxCell>
        <mxCell id="DjDlUBk-94I_P1uRHrz8-51" value="+ recover(std::shared_ptr&lt;Node&gt; saved_for): Tensor" style="text;strokeColor=none;fillColor=none;align=left;verticalAlign=top;spacingLeft=4;spacingRight=4;overflow=hidden;rotatable=0;points=[[0,0.5],[1,0.5]];portConstraint=eastwest;" parent="DjDlUBk-94I_P1uRHrz8-48" vertex="1">
          <mxGeometry y="60" width="310" height="26" as="geometry" />
        </mxCell>
        <mxCell id="cD26Aei0y1fo-a6brxzX-15" style="edgeStyle=orthogonalEdgeStyle;curved=0;rounded=1;orthogonalLoop=1;jettySize=auto;html=1;exitX=1;exitY=0.5;exitDx=0;exitDy=0;entryX=0;entryY=0.5;entryDx=0;entryDy=0;" edge="1" parent="1" source="DjDlUBk-94I_P1uRHrz8-54" target="oUVosOLtsmR4s0kaUU6V-9">
          <mxGeometry relative="1" as="geometry">
            <mxPoint x="690" y="500" as="targetPoint" />
          </mxGeometry>
        </mxCell>
        <mxCell id="cD26Aei0y1fo-a6brxzX-16" value="construct" style="edgeLabel;html=1;align=center;verticalAlign=middle;resizable=0;points=[];" vertex="1" connectable="0" parent="cD26Aei0y1fo-a6brxzX-15">
          <mxGeometry x="0.4672" y="2" relative="1" as="geometry">
            <mxPoint x="25" y="2" as="offset" />
          </mxGeometry>
        </mxCell>
        <mxCell id="DjDlUBk-94I_P1uRHrz8-54" value="grad_node_" style="html=1;" parent="1" vertex="1">
          <mxGeometry x="454" y="530" width="110" height="50" as="geometry" />
        </mxCell>
        <mxCell id="oUVosOLtsmR4s0kaUU6V-8" value="Edge" style="swimlane;fontStyle=1;align=center;verticalAlign=top;childLayout=stackLayout;horizontal=1;startSize=26;horizontalStack=0;resizeParent=1;resizeParentMax=0;resizeLast=0;collapsible=1;marginBottom=0;" parent="1" vertex="1">
          <mxGeometry x="730" y="438" width="350" height="112" as="geometry" />
        </mxCell>
        <mxCell id="oUVosOLtsmR4s0kaUU6V-9" value="+ grad_node_: shared_ptr&lt;GradNodeBase&gt;" style="text;strokeColor=none;fillColor=none;align=left;verticalAlign=top;spacingLeft=4;spacingRight=4;overflow=hidden;rotatable=0;points=[[0,0.5],[1,0.5]];portConstraint=eastwest;" parent="oUVosOLtsmR4s0kaUU6V-8" vertex="1">
          <mxGeometry y="26" width="350" height="26" as="geometry" />
        </mxCell>
        <mxCell id="oUVosOLtsmR4s0kaUU6V-10" value="+ input_rank_: size_t " style="text;strokeColor=none;fillColor=none;align=left;verticalAlign=top;spacingLeft=4;spacingRight=4;overflow=hidden;rotatable=0;points=[[0,0.5],[1,0.5]];portConstraint=eastwest;" parent="oUVosOLtsmR4s0kaUU6V-8" vertex="1">
          <mxGeometry y="52" width="350" height="26" as="geometry" />
        </mxCell>
        <mxCell id="oUVosOLtsmR4s0kaUU6V-11" value="" style="line;strokeWidth=1;fillColor=none;align=left;verticalAlign=middle;spacingTop=-1;spacingLeft=3;spacingRight=3;rotatable=0;labelPosition=right;points=[];portConstraint=eastwest;" parent="oUVosOLtsmR4s0kaUU6V-8" vertex="1">
          <mxGeometry y="78" width="350" height="8" as="geometry" />
        </mxCell>
        <mxCell id="oUVosOLtsmR4s0kaUU6V-12" value="+ Setter/Getters" style="text;strokeColor=none;fillColor=none;align=left;verticalAlign=top;spacingLeft=4;spacingRight=4;overflow=hidden;rotatable=0;points=[[0,0.5],[1,0.5]];portConstraint=eastwest;" parent="oUVosOLtsmR4s0kaUU6V-8" vertex="1">
          <mxGeometry y="86" width="350" height="26" as="geometry" />
        </mxCell>
        <mxCell id="cD26Aei0y1fo-a6brxzX-1" value="InputBuffer" style="swimlane;fontStyle=1;align=center;verticalAlign=top;childLayout=stackLayout;horizontal=1;startSize=26;horizontalStack=0;resizeParent=1;resizeParentMax=0;resizeLast=0;collapsible=1;marginBottom=0;rounded=0;" vertex="1" parent="1">
          <mxGeometry x="740" y="720" width="160" height="86" as="geometry" />
        </mxCell>
        <mxCell id="cD26Aei0y1fo-a6brxzX-2" value="+ buffer: vector&lt;pt::Tensor&gt;" style="text;strokeColor=none;fillColor=none;align=left;verticalAlign=top;spacingLeft=4;spacingRight=4;overflow=hidden;rotatable=0;points=[[0,0.5],[1,0.5]];portConstraint=eastwest;" vertex="1" parent="cD26Aei0y1fo-a6brxzX-1">
          <mxGeometry y="26" width="160" height="26" as="geometry" />
        </mxCell>
        <mxCell id="cD26Aei0y1fo-a6brxzX-3" value="" style="line;strokeWidth=1;fillColor=none;align=left;verticalAlign=middle;spacingTop=-1;spacingLeft=3;spacingRight=3;rotatable=0;labelPosition=right;points=[];portConstraint=eastwest;" vertex="1" parent="cD26Aei0y1fo-a6brxzX-1">
          <mxGeometry y="52" width="160" height="8" as="geometry" />
        </mxCell>
        <mxCell id="cD26Aei0y1fo-a6brxzX-4" value="+ add(Tensor): void" style="text;strokeColor=none;fillColor=none;align=left;verticalAlign=top;spacingLeft=4;spacingRight=4;overflow=hidden;rotatable=0;points=[[0,0.5],[1,0.5]];portConstraint=eastwest;" vertex="1" parent="cD26Aei0y1fo-a6brxzX-1">
          <mxGeometry y="60" width="160" height="26" as="geometry" />
        </mxCell>
        <mxCell id="cD26Aei0y1fo-a6brxzX-9" style="edgeStyle=orthogonalEdgeStyle;curved=0;rounded=1;orthogonalLoop=1;jettySize=auto;html=1;exitX=0;exitY=0.5;exitDx=0;exitDy=0;entryX=1;entryY=0.5;entryDx=0;entryDy=0;" edge="1" parent="1" source="cD26Aei0y1fo-a6brxzX-2" target="DjDlUBk-94I_P1uRHrz8-12">
          <mxGeometry relative="1" as="geometry">
            <Array as="points">
              <mxPoint x="720" y="759" />
              <mxPoint x="720" y="885" />
            </Array>
          </mxGeometry>
        </mxCell>
        <mxCell id="cD26Aei0y1fo-a6brxzX-11" value="passed_in" style="edgeLabel;html=1;align=center;verticalAlign=middle;resizable=0;points=[];" vertex="1" connectable="0" parent="cD26Aei0y1fo-a6brxzX-9">
          <mxGeometry x="-0.343" y="-4" relative="1" as="geometry">
            <mxPoint as="offset" />
          </mxGeometry>
        </mxCell>
        <mxCell id="cD26Aei0y1fo-a6brxzX-10" value="1" style="endArrow=open;html=1;endSize=12;startArrow=diamondThin;startSize=14;startFill=1;edgeStyle=orthogonalEdgeStyle;align=left;verticalAlign=bottom;entryX=1;entryY=0.5;entryDx=0;entryDy=0;exitX=1;exitY=0.5;exitDx=0;exitDy=0;" edge="1" parent="1" source="DjDlUBk-94I_P1uRHrz8-49" target="DjDlUBk-94I_P1uRHrz8-12">
          <mxGeometry x="-1" y="3" relative="1" as="geometry">
            <mxPoint x="670" y="950" as="sourcePoint" />
            <mxPoint x="830" y="950" as="targetPoint" />
            <Array as="points">
              <mxPoint x="700" y="776" />
              <mxPoint x="700" y="885" />
            </Array>
          </mxGeometry>
        </mxCell>
        <mxCell id="cD26Aei0y1fo-a6brxzX-14" style="edgeStyle=orthogonalEdgeStyle;curved=0;rounded=1;orthogonalLoop=1;jettySize=auto;html=1;exitX=1;exitY=0.5;exitDx=0;exitDy=0;entryX=0;entryY=0.5;entryDx=0;entryDy=0;" edge="1" parent="1" source="cD26Aei0y1fo-a6brxzX-13" target="oUVosOLtsmR4s0kaUU6V-9">
          <mxGeometry relative="1" as="geometry">
            <Array as="points">
              <mxPoint x="690" y="477" />
              <mxPoint x="690" y="477" />
            </Array>
          </mxGeometry>
        </mxCell>
        <mxCell id="cD26Aei0y1fo-a6brxzX-13" value="output_rank" style="html=1;rounded=0;" vertex="1" parent="1">
          <mxGeometry x="454" y="452" width="110" height="50" as="geometry" />
        </mxCell>
        <mxCell id="cD26Aei0y1fo-a6brxzX-17" value="AutogradMeta" style="swimlane;rounded=0;" vertex="1" parent="1">
          <mxGeometry x="440" y="420" width="140" height="310" as="geometry" />
        </mxCell>
        <mxCell id="cD26Aei0y1fo-a6brxzX-19" value="AutogradMeta" style="swimlane;rounded=0;" vertex="1" parent="1">
          <mxGeometry x="415" y="830" width="200" height="270" as="geometry" />
        </mxCell>
        <mxCell id="DjDlUBk-94I_P1uRHrz8-12" value="grad_node: GradNode0" style="html=1;" parent="cD26Aei0y1fo-a6brxzX-19" vertex="1">
          <mxGeometry x="12" y="30" width="166" height="50" as="geometry" />
        </mxCell>
        <mxCell id="DjDlUBk-94I_P1uRHrz8-19" value="grad_accumulator_" style="html=1;" parent="cD26Aei0y1fo-a6brxzX-19" vertex="1">
          <mxGeometry x="40" y="150" width="110" height="50" as="geometry" />
        </mxCell>
        <mxCell id="cD26Aei0y1fo-a6brxzX-20" value="output_rank" style="html=1;rounded=0;" vertex="1" parent="cD26Aei0y1fo-a6brxzX-19">
          <mxGeometry x="40" y="210" width="110" height="50" as="geometry" />
        </mxCell>
        <mxCell id="cD26Aei0y1fo-a6brxzX-21" value="input number" style="endArrow=open;html=1;endSize=12;startArrow=diamondThin;startSize=14;startFill=1;edgeStyle=orthogonalEdgeStyle;align=left;verticalAlign=bottom;exitX=1;exitY=0.5;exitDx=0;exitDy=0;entryX=1;entryY=0.5;entryDx=0;entryDy=0;" edge="1" parent="1" source="oUVosOLtsmR4s0kaUU6V-9" target="DjDlUBk-94I_P1uRHrz8-12">
          <mxGeometry x="-1" y="3" relative="1" as="geometry">
            <mxPoint x="1040" y="610" as="sourcePoint" />
            <mxPoint x="1200" y="610" as="targetPoint" />
            <Array as="points">
              <mxPoint x="1140" y="477" />
              <mxPoint x="1140" y="885" />
            </Array>
          </mxGeometry>
        </mxCell>
      </root>
    </mxGraphModel>
  </diagram>
</mxfile>
